<?xml version="1.0" encoding="utf-8"?>
<!-- Generator: Adobe Illustrator 25.2.0, SVG Export Plug-In . SVG Version: 6.00 Build 0)  -->
<svg version="1.1" id="Layer_1" xmlns="http://www.w3.org/2000/svg" xmlns:xlink="http://www.w3.org/1999/xlink" x="0px" y="0px"
	 viewBox="0 0 751.2 648.6" style="enable-background:new 0 0 751.2 648.6;" xml:space="preserve">
<style type="text/css">
	.st0{fill:#FBBC30;}
	.st1{fill:#69CBE5;}
	.st2{fill:#FFFFFF;}
	.st3{fill:#E20D40;}
	.st4{fill-rule:evenodd;clip-rule:evenodd;fill:#E20D40;}
	.st5{fill-rule:evenodd;clip-rule:evenodd;fill:#FFFFFF;}
	.st6{fill-rule:evenodd;clip-rule:evenodd;fill:#FBBC30;}
</style>
<g id="bg">
	<path class="st0" d="M311.5,25.6c172,0,311.5,139.5,311.5,311.5S483.5,648.6,311.5,648.6C139.5,648.6,0,509.1,0,337.1
		S139.5,25.6,311.5,25.6z"/>
	<g>
		<circle class="st1" cx="311.5" cy="337.1" r="301.5"/>
	</g>
	<path class="st2" d="M427,615.7l-70.6-88l58.3,92.8c-2,0.7-4,1.4-6,2.1L348.4,533l48.3,93.4c-2.1,0.6-4.1,1.2-6.2,1.8L340,537.6
		l38.8,93.5c-2.1,0.5-4.3,0.9-6.4,1.4l-41.2-90.9l29.8,93c-2.2,0.4-4.4,0.7-6.5,1l-32.3-90.9l21.2,92.3c-2.2,0.2-4.4,0.4-6.7,0.6
		L312.9,547l13.1,91.2c-2.2,0.1-4.5,0.2-6.7,0.2l-15.8-89.9l5.3,90c-2.3,0-4.5-0.1-6.8-0.1l-8-89l-2.2,88.5
		c-2.3-0.1-4.5-0.3-6.8-0.5l-0.5-88l-9.5,87c-2.3-0.3-4.5-0.6-6.8-0.9l6.8-86.9l-16.6,85.3c-2.3-0.4-4.5-0.8-6.7-1.3l13.9-85.6
		l-23.7,83.4c-2.2-0.5-4.4-1.1-6.7-1.7l21.1-84.2l-30.7,81.5c-2.2-0.7-4.4-1.3-6.5-2l28.2-82.6l-37.8,79.3c-2.1-0.8-4.3-1.6-6.4-2.4
		l35.4-80.8l-44.9,77c-2.1-0.9-4.2-1.8-6.2-2.7l42.7-78.9l-52.2,74.4c-2-1-4-2-6-3.1l50.2-76.6l-59.6,71.4c-1.9-1.1-3.9-2.2-5.8-3.4
		l57.9-74l-67.3,68.1c-1.9-1.2-3.7-2.4-5.5-3.7l65.9-71l-75.2,64.3c-1.8-1.3-3.5-2.6-5.2-4l74-67.5l-83.3,60
		c-1.7-1.4-3.3-2.8-4.9-4.2l82.5-63.4l-91.7,55c-1.5-1.5-3.1-3-4.6-4.5l91.1-58.6L89.9,541.5c-1.4-1.5-2.8-3.1-4.2-4.6l99.9-53
		L76.8,526.4c-1.3-1.6-2.5-3.2-3.8-4.8L181.9,475L64.4,509.9c-1.1-1.6-2.3-3.3-3.4-4.9L179,465.9L52.9,492.1c-1-1.7-2-3.3-2.9-5
		l126.8-30.6L42.3,473c-0.8-1.7-1.7-3.3-2.5-5l135.6-20.9l-142.5,5.4c-0.7-1.6-1.4-3.3-2-5l143.9-9.9l-150-6.9
		c-0.5-1.6-1-3.2-1.5-4.9L175,428L18.3,407.5c-0.4-1.6-0.7-3.2-1.1-4.7L176,418.4L13.5,383.1c-0.2-1.5-0.5-3-0.7-4.5L177.8,409
		L10.7,357.8c-0.1-1.4-0.2-2.9-0.3-4.3l169.9,46.3L10.1,331.5c0-1.3,0.1-2.7,0.1-4l173.5,63.3L11.7,304.5c0.1-1.2,0.3-2.5,0.4-3.7
		l175.6,81.3L16,277.1c0.2-1.1,0.5-2.2,0.7-3.3l175.9,100.1L22.9,249.5c0.3-1,0.6-2,0.9-3L198,366L32.7,222l1.1-2.6l170.3,139.1
		L45.4,195.1l1.2-2.2l164.2,158.8L61.1,169.1l1.3-1.8l155.7,178.2L79.6,144.4l1.3-1.5l145,197L100.9,121.3l1.2-1.2L234,334.9
		L124.9,100.3l1.2-0.9l116.6,231.2l-91.4-249l1.1-0.7l99.2,246.1L179.8,65.8l1-0.5l79.9,259L210.2,53.1l0.9-0.3l59,269.6L242,43.7
		l0.8-0.2l36.8,277.7l-4.7-283.3l0.7-0.1l13.6,283l19.2-285.1l0.6,0l-10.2,285.5l43.2-284l0.5,0.1l-34.2,285.2l67-280l0.5,0.1
		l-58.1,281.9l90-273.1l0.5,0.2l-81.4,275.7L438.8,63.7l0.5,0.2L335.6,330.6L468.3,79.6l0.6,0.3l-124.6,255L495.7,98.5l0.6,0.5
		L352.4,339.9l168.3-219.8l0.6,0.6L360.2,345.5l182.9-201.4l0.7,0.8L367.4,351.7l195.1-181.6l0.7,1L374.1,358.6l204.8-160.8l0.7,1.3
		L380.2,366L592,226.6l0.6,1.5l-207,145.7L602,256.2l0.5,1.8l-212,124.1l218.2-96l0.4,2.1L394.6,390.8l217.7-74.7l0.2,2.5
		l-214.5,81.3l214.9-54.2l-0.1,2.7L400.5,409l210.2-34.6c-0.1,1-0.3,2-0.4,3l-208,41l203.6-16.2c-0.2,1.1-0.5,2.2-0.7,3.3
		l-201.9,22.5l195.5,0.9c-0.4,1.2-0.7,2.3-1.1,3.5l-194.1,5.3l186,16.4c-0.5,1.2-1,2.4-1.6,3.6l-185-10.5l175.4,30.5
		c-0.7,1.3-1.3,2.5-2,3.7l-174.8-24.7l164.1,42.9c-0.8,1.3-1.6,2.5-2.5,3.8l-163.8-37.4l152.2,53.7c-1,1.3-1.9,2.5-2.9,3.8
		L396.3,475l139.9,63c-1.1,1.3-2.3,2.5-3.4,3.7l-140.2-57.9l127.5,70.8c-1.3,1.2-2.6,2.4-3.9,3.6l-128.1-66l115.2,77.3
		c-1.4,1.2-2.8,2.3-4.3,3.5l-116.1-72.7l103.1,82.4c-1.6,1.1-3.1,2.2-4.7,3.3L377.3,508l91.3,86.5c-1.7,1-3.4,2-5.1,3l-92.6-82.4
		l79.8,89.4c-1.8,0.9-3.6,1.9-5.4,2.8l-81.4-85.6l68.8,91.5C430.8,614.1,428.9,614.9,427,615.7z"/>
</g>
<g id="miner">
	<path class="st3" d="M547.4,524.8c-55.2,69.4-140.4,113.8-236,113.8c-155.1,0-282.8-117-299.6-267.6c1.2-2.4,2.5-4.8,3.8-7.2
		c104.3-1.3,276.9,35.5,517.6,110.5l2,26.3L547.4,524.8z"/>
	<path class="st4" d="M529.3,422.6l3.9,51.6c-247.6-52.8-420.6-89.8-517.6-110.4c18.2-32.9,44.4-56.7,78.8-71.2
		c2.1-11.6,8.4-22.6,18.9-33l10-1.9c6.5-8,9.5-19.7,9-35.1L117,204.9l-7.8-3.1l-8.8-19.3l7-7l-4.1-9l-19.9,2
		c-15.2,2.5-16.5-12.2-6.1-18.8C45.4,31.3,168.1-45,277,29.5l16-12.3c34.7-13.3,58.1,41.1,47.4,61.3c-4,4-10,6.7-18,8
		c5.1,4.5,13.1,7.5,24,9c7.6,2.8,9.9,11.2,4.9,18c-5.2,6.4-17.8,13.5-38,20.4l1.7,14.8l-6.3,9.3l10.9,20.8
		c13.5,10.8,7.6,23.4-12.2,28l1.1,15.6l-5.9,5.9c0,0,11.9,5.4,5.9,13.3l-7.5,7.5c10.3,15.5,10.3,25.5,0,29.9
		c-8,2.8-21.7,4.9-41.1,6.4l-4.6,14c14,8.7,22,20.4,24.2,35.1c54.3,27.1,88.6,55.4,103,84.9l24.9,11.1c-0.6-4.5,1.4-8.2,6.1-11.1
		c-2.5-8.9-2.9-15,6-17.3c-16.3-8.9-17.7-20.5-12.9-28.7c14.2,0.1,24.3-0.2,30.1-0.7l10.8-10.2h33l28.1,16.9
		C519.7,399,526.6,413.4,529.3,422.6z"/>
	<path class="st4" d="M615.9,247.3l-4.6-15.3c-10.1-17.3-26.3-27.7-48.7-31.3h-18.8c-61.7-38.3-129.2-58.8-202.5-61.5
		c88,33.2,148.7,66.1,181.9,98.8l-10.1,32.7l5.5,13.9L396.1,480l39.3,28.6l120.7-192.7l13.9-2.5l21.9-12.8
		c41.8,27.1,69.9,63.5,101.5,145.4c22,0.7,41.2-7.3,57.8-24C716,347.9,670.9,289.7,615.9,247.3z"/>
	<path class="st5" d="M303.9,119l3.8,28.2l-5.4,9.6l13.9,26.6c7.3,7.5,5.2,17.5-14.3,20.6l1.1,16.4l-5.7-1.5l-19,11.4l3.8,1.5
		l11.8-2.7c11.6,4.8,13.1,9.3,4.6,13.7l-6.9,4.6l10.7,14.9c2.3,5.3,0.6,9.3-5,12.2c-23.2,3.3-49,0.2-77.3-9.5
		c-19.3-8-30.7-23.3-34.3-45.7c-2.5,13.7-2.9,23.3-1.1,28.6c4.2,8.1,10.5,14,19.1,17.5l2.3,10.3l-69.7-17.1l8-32
		c20.9,8.5,33.5,6.2,37.7-6.9c-37.7,29.4-42.7-121.9,4.9-36.2l19.8,0.8c0.2-10.7,1.8-18.6,8.1-24.6l-4.9-13.2
		C228.5,136.5,260.2,128.4,303.9,119z"/>
	<path class="st5" d="M327.6,101.8c-94.9,17.9-162.7,59.4-240.4,60.2c-15.3,0.7-10.7-6.9-1.8-13.7C66.6,18,177.7-35.5,289.5,95.7
		c-13.3-19.6-19.8-35-19.4-46.1l19-10.3c4.3,20.6,13.1,33.7,26.3,39.2l-17.9,1.1C305.6,97.8,334.5,95.7,327.6,101.8z"/>
	<polygon class="st6" points="151.9,162.4 113.7,195.3 108.1,182.6 123.8,165.8 	"/>
	<path class="st4" d="M249.8,153.6c2.8-4.7,8.3-8.4,16.4-11.1c10.3,0.4,17.3,11.4,30.1,4.9l-4.6,4.6c-1.5,2.6,0.1,8.3,4.9,17.2
		c-3.7,4.3-9.1-5.6-15.2-13l-13.7-6.5C260.2,150.7,254.2,152,249.8,153.6z"/>
	<path class="st4" d="M276.7,152.8c-6.5,2.6-13,6.3-19.4,11.3l19.2,6.5l-0.6-2.4l-10.6-4.7c1.3-1.5,3.4-2.5,6.3-2.9
		c5.3,7.9,10.1,7.2,8.2-2.4C279.8,155.8,278.7,154,276.7,152.8z"/>
	<path class="st4" d="M293.8,187c-13.8,5.2-14.6,11-2.4,17.3c-9.5,2.8-15.3-2.1-16.6,1.7c-1.9,3.6-3.3,11.2-4.4,23.1
		c-2.6-9.8-3.4-19.2-2.6-28.2C275.9,199.1,278.8,184.7,293.8,187z"/>
	<path class="st4" d="M292.3,199.9c5.4-4.4,10-5.2,13.7-2.6c-1.9,1.7-4.4,3.1-7.2,4C296.4,201.6,301.6,196.5,292.3,199.9z"/>
	<path class="st4" d="M220.5,191.5c5.3,7.8,14.4,11,27.1,9.7c-6.2,10.7-8.9,23.7-8.3,38.9c-5.2-11.5-6.5-21.6-4-30.5
		C226,207.2,221,201.2,220.5,191.5z"/>
	<path class="st4" d="M158.4,181.5c2-4.3,3.8-8.1,5.4-11.5c4.3-1.2,7.7,3.9,10.3,15.4c-6.4,9.8-3.6,16.1,8.6,18.9
		c-13.1,8-21.5-5.4-12.3-18c-0.4-7.4-2.3-10-5.7-7.7L158.4,181.5z"/>
	<path class="st5" d="M266.3,326c-34.2-30.9-82.6-50.4-145.1-58.7c-7.2,6.6-12,14.8-14.4,24.5C175.2,297.9,228.4,309.2,266.3,326z"
		/>
	<path class="st5" d="M538.2,521.3l-12.1-29.4l-3.1-66.6l-12.5-31.6l-7.7,11.8l9.5,23.6c-4.3,5.2-9.1-8.6-28.9-40
		c-6.7-4.7-18.3-8.7-34.8-11.9c-6.3,2.6-18.4,2.9-36.4,1c-4.6,11.4,5.5,23,43.1,24.4c1.3,24.5,4.9,44.7,11,60.5l-3,4.9
		c13.8,8.4,20.1,18.5,19,30.2l50.7,30.1L538.2,521.3z"/>
	<polygon class="st5" points="463.2,367.4 451,366.2 443.8,370.1 455.9,374.2 	"/>
	<path class="st5" d="M425.4,406.6c-7,1.6-9.4,6.9-7.2,16l9.5,18.3l25.2,14.1c2.9-3.7,3.3-9.6,1.2-17.5l-16.6-12L425.4,406.6z"/>
	<path class="st6" d="M403,149c59.3,16.2,105.6,36.3,138.7,60.3c35.1-0.8,57.9,13.5,68.5,43c60.6,48.8,104.9,104.7,133.2,167.6
		c-44-71-90.9-121.1-140.8-150.5l-25.9,25.9c-4.7-16.1-20.7-25.9-48-29.3l8-23.4l17.5-2.6C538.2,216.3,487.8,185.9,403,149z"/>
	<path class="st0" d="M306.9,54.6c-8-15.6-8.8-31-1.8-34.6c2.8-1.4,6.3-0.7,10.1,1.6c-2.5-0.8-4.7-0.9-6.6,0.1
		c-7,3.5-6.2,19,1.8,34.6c4.8,9.4,11.2,16.7,16.9,20.2C320.7,74.1,312.7,65.9,306.9,54.6z"/>
	<g>
		<ellipse transform="matrix(0.9744 -0.225 0.225 0.9744 -28.824 66.5504)" class="st2" cx="277.6" cy="159.7" rx="1.6" ry="2.9"/>
	</g>
	<g>
		<ellipse transform="matrix(0.891 -0.454 0.454 0.891 13.9357 151.2039)" class="st0" cx="321.9" cy="46.6" rx="10.5" ry="23.4"/>
	</g>
	<path class="st4" d="M219.4,118.9c-0.4-11.5-4.5-23.1-12.3-34.9c-26.9,3.3-50,9.1-69.2,17.4c32.6-5.1,52-6.1,58.3-3.1
		c3.5,7.6,5.8,16.1,6.8,25.4L219.4,118.9z"/>
	<path class="st0" d="M320.4,103.2c-91.2,18.6-157.5,58.1-233.2,58.8c-15.3,0.7-10.7-6.9-1.8-13.7C75.1,77.2,103.6,28.9,149.7,21.1
		c-27,35.4-17.7,69.3-12.9,80.3l1.5,32C151.3,152.8,291.7,89.6,320.4,103.2z"/>
	<path class="st0" d="M174.4,223.2c-26.3,4.3-30.7-87.5-3.1-62C151,159,154,209.3,174.4,223.2z M167.5,266.1l-31.2-7.6l8-32
		c12.1,4.9,21.5,6.2,28,3.9C158.5,244.8,170,256.4,167.5,266.1z"/>
	<path class="st6" d="M528.3,285.1l-58.9,90.5l17,3.4l7,10.5l54.5-88C548.7,294.3,542.2,288.8,528.3,285.1z"/>
	<path class="st2" d="M688.9,344.3c-27.7-32.4-56.5-57.4-86.3-74.9l-25.9,25.9c-1.7-5.8-4.9-10.8-9.5-15c9.3-9.3,19-17.7,29.1-25.4
		C626.4,269.3,657.3,299.1,688.9,344.3z"/>
	<path class="st2" d="M538.9,288.9c6.6,3.4,9.6,7.6,9,12.6l-54.5,88l-7-10.5l-2.9-0.6L538.9,288.9z"/>
	<path class="st0" d="M494.4,505.3l-12.2-7.2c1.1-11.7-5.2-21.7-19-30.2l3-4.9c-6-15.8-9.7-36-11-60.5c-37.6-1.3-47.7-13-43.1-24.4
		c2,0.2,4,0.4,5.8,0.6c-6.4,10.3,8.1,17.3,43.4,21.1l10,60.6C483.5,470.2,491.2,485.2,494.4,505.3z"/>
	<path class="st5" d="M21.7,383.4c17.7-39.7,41.5-69.1,76-78.3c34.4-5.6,120.4,7,164.1,32.8c-20.7,3.8-40.5,18-46.4,27.9
		c32.8-16.8,51.9-21.3,60-18.5c37.6,8.3,77,46.8,99.9,82c21.3,8.1,38.4,20.8,53,30.8c10,70.2-16.9,112.6-80.8,127.2
		C290.1,568,233.8,536.2,218.6,465c-4.8,59.2,26.6,106.1,56.8,129.5c-24.8-0.9-50.6-23.6-77.5-67.9c-2.5,28,22,59,38.4,78.4
		c-38.8-4.1-76.4-38.5-112.8-103.2c-3.2,19.2,1.2,24,24.8,60.1C95.6,546.5,45,471.4,21.7,383.4z"/>
	<path class="st5" d="M436.5,464.2c21.7,2.4,41.2,21.9,39.7,43.9c-6.2,56.1-37.3,92.7-73.6,97.8c-5.5,0.8-12.4,1.7-19.3,1.8
		c25.2-9.3,46.3-24.9,63.3-46.9c-27.3,17.6-56.4,39.1-90.6,38.3c-2.6-0.8-4.9-1.7-3.4-6.3C420.6,581.9,451.9,511.1,436.5,464.2z"/>
	<path class="st5" d="M485.3,514c-1.1,23.1-10.5,48-28.2,74.7c30.4-19.3,51.8-36.2,64-50.7C518.6,532.7,506.6,524.7,485.3,514z"/>
	<polygon class="st5" points="230.1,273.8 250.3,284.9 247.2,292.9 	"/>
	<path class="st0" d="M21.7,383.4c17.7-39.7,41.5-69.1,76-78.3c3.3-0.5,7.1-0.9,11.3-1.1c-35.6,72.3-49.3,123.6-41.1,153.9
		c12.4,33.2,34.5,66.1,66.2,98.5C86.8,532.9,42.9,463.5,21.7,383.4z"/>
	<path class="st2" d="M321.6,29.1c3.4,2.9,6.8,7.4,9.5,12.8c5.9,11.5,6.5,23,1.3,25.6c-0.2,0.1-0.5,0.2-0.7,0.3
		c-3.4-2.9-6.8-7.4-9.5-12.8c-5.9-11.5-6.5-23-1.3-25.6C321.2,29.3,321.4,29.2,321.6,29.1z"/>
	<path class="st6" d="M269.3,33.8L258.1,41c-12.8-12.7-31.4-19.5-58.8-26C225.5,12.3,248.8,18.5,269.3,33.8z"/>
	<path class="st0" d="M176.4,300.7c-21.1-3.7-44.3-6.6-69.6-8.9c2.4-9.8,7.2-18,14.4-24.5c3.3,0.4,6.6,0.9,9.8,1.4
		C141.4,280.9,156.6,291.6,176.4,300.7z"/>
	<polygon class="st6" points="414.2,426.2 411.9,432.4 421.2,439.6 	"/>
	<path class="st0" d="M454.7,451.7c-0.4,1.2-1,2.3-1.7,3.3l-25.2-14.1l-9.5-18.3c-1.7-7.1-0.6-12,3.4-14.5l0.9,12.6l8.3,16.5
		l2.5-4.9l0.5,7.7L454.7,451.7z"/>
	<path class="st2" d="M536.6,267.3c-2.5-0.5-5.2-0.9-7.9-1.2l8-23.4l17.5-2.6c-14-20.8-54.3-46.7-121.1-77.6l-0.4-0.3
		c73.8,29.5,117.2,59,133.9,80.7l-16.3,5.5L536.6,267.3z"/>
	<path class="st0" d="M400.3,562.3c-13.2,11.6-30.9,19.9-52.9,25c-41.8-14.1-83.1-34.9-108.3-72.7
		C307.5,550.7,361.3,566.6,400.3,562.3z"/>
	<path class="st0" d="M418.4,578.8c-19.2,11.5-39.7,20.8-62.4,20.3c-2.6-0.8-4.9-1.7-3.4-6.3c9.3-1.5,17.8-4.1,25.7-7.6
		C391.4,583.8,404.7,581.6,418.4,578.8z M455.4,569.5c-13.6,20.7-32.4,33.5-52.8,36.4c-5.5,0.8-12.4,1.7-19.3,1.8
		c19.2-7.1,36.1-17.9,50.6-32.4C441,573.5,448.2,571.6,455.4,569.5z"/>
	<path class="st2" d="M105.6,161.1c-6.1,0.5-12.2,0.9-18.4,0.9c-15.3,0.7-10.7-6.9-1.8-13.7C78,96.8,90.8,57.3,116,36.4
		c-22.6,50.7-23.2,91.3-7.7,108.4C87.8,149.9,81.5,156.2,105.6,161.1z"/>
</g>
</svg>
